<svg width="800" height="800" viewBox="0 0 800 800" fill="none" xmlns="http://www.w3.org/2000/svg">
<path d="M533.333 400C533.333 473.637 473.637 533.333 400 533.333C326.362 533.333 266.667 473.637 266.667 400C266.667 326.362 326.362 266.667 400 266.667C473.637 266.667 533.333 326.362 533.333 400ZM533.333 400V450C533.333 496.023 570.643 533.333 616.667 533.333C662.69 533.333 700 496.023 700 450V400C700 234.315 565.687 100 400 100C234.315 100 100 234.315 100 400C100 565.687 234.315 700 400 700H533.333" stroke="#2C4F83" stroke-width="66.6667" stroke-linecap="round" stroke-linejoin="round"/>
</svg>
