<svg width="800" height="800" viewBox="0 0 800 800" fill="none" xmlns="http://www.w3.org/2000/svg">
<path d="M611.25 611.25H522.35V472C522.35 438.8 521.75 396.05 476.1 396.05C429.8 396.05 422.7 432.25 422.7 469.55V611.25H333.8V324.9H419.15V364.05H420.35C437.75 334.35 470.15 316.55 504.55 317.8C594.65 317.8 611.3 377.05 611.3 454.2L611.25 611.2V611.25ZM233.5 285.75C219.844 285.684 206.765 280.234 197.103 270.582C187.442 260.93 181.979 247.856 181.9 234.2C181.9 205.9 205.2 182.6 233.5 182.6C261.8 182.6 285.05 205.9 285.1 234.2C285.1 262.5 261.8 285.75 233.5 285.75ZM277.95 611.25H188.95V324.9H277.95V611.25ZM655.5 100H144.25C132.658 99.9327 121.507 104.443 113.221 112.551C104.935 120.659 100.184 131.709 100 143.3V656.7C100.184 668.291 104.935 679.341 113.221 687.449C121.507 695.557 132.658 700.067 144.25 700H655.55C667.169 700.094 678.356 695.599 686.679 687.491C695.003 679.383 699.79 668.318 700 656.7V143.25C699.79 131.641 694.999 120.586 686.673 112.494C678.347 104.402 667.16 99.9294 655.55 100.05L655.5 100Z" fill="#2C4F83"/>
</svg>
